<svg xmlns="http://www.w3.org/2000/svg" viewBox="0 0 128 128"><defs><style>.a{fill:#fff;stroke:#e6e6e6;stroke-miterlimit:2;stroke-width:0.5px;}.b{fill:none;stroke:#231f20;stroke-linejoin:bevel;}</style></defs><title>infinitynote-vector</title><path class="a" d="M7.32,68.0906c13.4948-13.3041,36.4957-11.5172,50.9893-2.1547L48.4353,81.2238C40.1139,75.8508,26.78,74.46,20.19,80.9586a16.87,16.87,0,0,0-4.3306,13.4066,16.9571,16.9571,0,0,0,6.7785,12.5262c7.631,5.2363,19.8563,2.6646,26.0764-5.5645a72.5744,72.5744,0,0,0,6.48-11.2c3.76-7.4443,8.0206-15.8813,16.2333-22.143a36.63,36.63,0,0,1,38.6941-3.3154A31.8394,31.8394,0,0,1,127,87.6452V64L76.6,38.8,89.2,1H1V77.15A33.1414,33.1414,0,0,1,7.32,68.0906Z"/><path class="a" d="M109.31,94.3119a13.9461,13.9461,0,0,0-7.64-13.5242,18.2905,18.2905,0,0,0-19.2924,1.7336C77.5762,86.184,74.7324,91.8141,71.44,98.3328a87.259,87.259,0,0,1-8.2277,13.9959A39.2858,39.2858,0,0,1,39.3326,127H81.3274a39.8306,39.8306,0,0,1-11.294-5.7025L80.7686,106.6c5.6342,4.1166,13.8359,5.3854,19.4961,3.0187,5.3443-2.2162,8.9688-8.2756,9.04-15.0869Z"/><path class="a" d="M12.2506,121.8361A34.001,34.001,0,0,1,1,108.2559V127H24.63A33.3956,33.3956,0,0,1,12.2506,121.8361Z"/><path class="a" d="M107.2578,126.42q-.7407.31-1.5009.58H127V100.3513C125.06,112.0444,117.5914,122.1358,107.2578,126.42Z"/><polygon class="a" points="89.2 1 127 64 83.96 32.5 89.2 1"/><path class="b" d="M7.32,68.0906c13.4948-13.3041,36.4957-11.5172,50.9893-2.1547L48.4353,81.2238C40.1139,75.8508,26.78,74.46,20.19,80.9586a16.87,16.87,0,0,0-4.3306,13.4066,16.9571,16.9571,0,0,0,6.7785,12.5262c7.631,5.2363,19.8563,2.6646,26.0764-5.5645a72.5744,72.5744,0,0,0,6.48-11.2c3.76-7.4443,8.0206-15.8813,16.2333-22.143a36.63,36.63,0,0,1,38.6941-3.3154A31.8394,31.8394,0,0,1,127,87.6452V64L76.6,38.8,89.2,1H1V77.15A33.1414,33.1414,0,0,1,7.32,68.0906Z"/><path class="b" d="M109.31,94.3119a13.9461,13.9461,0,0,0-7.64-13.5242,18.2905,18.2905,0,0,0-19.2924,1.7336C77.5762,86.184,74.7324,91.8141,71.44,98.3328a87.259,87.259,0,0,1-8.2277,13.9959A39.2858,39.2858,0,0,1,39.3326,127H81.3274a39.8306,39.8306,0,0,1-11.294-5.7025L80.7686,106.6c5.6342,4.1166,13.8359,5.3854,19.4961,3.0187,5.3443-2.2162,8.9688-8.2756,9.04-15.0869Z"/><path class="b" d="M12.2506,121.8361A34.001,34.001,0,0,1,1,108.2559V127H24.63A33.3956,33.3956,0,0,1,12.2506,121.8361Z"/><path class="b" d="M107.2578,126.42q-.7407.31-1.5009.58H127V100.3513C125.06,112.0444,117.5914,122.1358,107.2578,126.42Z"/><polygon class="b" points="89.2 1 127 64 83.96 32.5 89.2 1"/></svg>